<svg width="23" height="28" viewBox="0 0 23 28" fill="none" xmlns="http://www.w3.org/2000/svg">
<path d="M11.4286 0C5.12682 0 0 4.54902 0 10.1405C0 17.0797 10.2275 27.2668 10.6629 27.6971C11.0719 28.1013 11.786 28.1006 12.1942 27.6971C12.6297 27.2668 22.8571 17.0797 22.8571 10.1405C22.857 4.54902 17.7303 0 11.4286 0ZM11.4286 15.2425C8.25801 15.2425 5.67863 12.9537 5.67863 10.1405C5.67863 7.32726 8.25807 5.03858 11.4286 5.03858C14.5991 5.03858 17.1785 7.32731 17.1785 10.1406C17.1785 12.9538 14.5991 15.2425 11.4286 15.2425Z" fill="black"/>
</svg>
