<svg width="19" height="24" viewBox="0 0 19 24" fill="none" xmlns="http://www.w3.org/2000/svg">
<path d="M9.5 0C4.26167 0 0 3.89916 0 8.69185C0 14.6397 8.50157 23.3716 8.86353 23.7404C9.20351 24.0868 9.7971 24.0862 10.1365 23.7404C10.4984 23.3716 19 14.6397 19 8.69185C18.9999 3.89916 14.7383 0 9.5 0ZM9.5 13.065C6.86447 13.065 4.72036 11.1032 4.72036 8.69185C4.72036 6.28051 6.86452 4.31879 9.5 4.31879C12.1355 4.31879 14.2796 6.28055 14.2796 8.6919C14.2796 11.1032 12.1355 13.065 9.5 13.065Z" fill="#A72146"/>
</svg>
